<svg width="102" height="49" viewBox="0 0 102 49" fill="none" xmlns="http://www.w3.org/2000/svg">
<rect x="101.916" y="49" width="87" height="33" rx="10" transform="rotate(180 101.916 49)" fill="#FA8F54"/>
<path d="M8.09336 8.79097C7.90082 7.33824 9.28442 6.17855 10.6812 6.62195L19.9008 9.54875C21.4042 10.026 21.7893 11.9745 20.5804 12.9878L12.6317 19.6502C11.4228 20.6634 9.57151 19.9438 9.36427 18.3802L8.09336 8.79097Z" fill="#FA8F54"/>
<path d="M42.0129 38V27.8182H46.0896C46.8386 27.8182 47.4634 27.9292 47.9639 28.1513C48.4643 28.3733 48.8405 28.6816 49.0924 29.076C49.3443 29.4671 49.4703 29.9179 49.4703 30.4283C49.4703 30.826 49.3907 31.1757 49.2316 31.4773C49.0725 31.7756 48.8538 32.0208 48.5754 32.2131C48.3003 32.402 47.9854 32.5362 47.6308 32.6158V32.7152C48.0186 32.7318 48.3815 32.8411 48.7195 33.0433C49.0609 33.2455 49.3377 33.5289 49.5498 33.8935C49.7619 34.2547 49.868 34.6856 49.868 35.1861C49.868 35.7263 49.7338 36.2086 49.4653 36.6328C49.2001 37.0537 48.8074 37.3868 48.287 37.6321C47.7667 37.8774 47.1253 38 46.363 38H42.0129ZM44.1656 36.2401H45.9205C46.5204 36.2401 46.9579 36.1257 47.233 35.897C47.5081 35.665 47.6457 35.3568 47.6457 34.9723C47.6457 34.6906 47.5777 34.442 47.4419 34.2266C47.306 34.0111 47.1121 33.8421 46.8602 33.7195C46.6116 33.5968 46.315 33.5355 45.9703 33.5355H44.1656V36.2401ZM44.1656 32.0788H45.7615C46.0564 32.0788 46.3183 32.0275 46.547 31.9247C46.779 31.8187 46.9613 31.6695 47.0938 31.4773C47.2297 31.285 47.2977 31.0547 47.2977 30.7862C47.2977 30.4183 47.1668 30.1217 46.9049 29.8963C46.6464 29.6709 46.2785 29.5582 45.8012 29.5582H44.1656V32.0788ZM54.6792 38.1491C53.907 38.1491 53.2391 37.9851 52.6757 37.657C52.1156 37.3255 51.683 36.8648 51.3781 36.2749C51.0732 35.6816 50.9207 34.9938 50.9207 34.2116C50.9207 33.4228 51.0732 32.7334 51.3781 32.1435C51.683 31.5502 52.1156 31.0895 52.6757 30.7614C53.2391 30.4299 53.907 30.2642 54.6792 30.2642C55.4515 30.2642 56.1177 30.4299 56.6778 30.7614C57.2413 31.0895 57.6755 31.5502 57.9804 32.1435C58.2853 32.7334 58.4378 33.4228 58.4378 34.2116C58.4378 34.9938 58.2853 35.6816 57.9804 36.2749C57.6755 36.8648 57.2413 37.3255 56.6778 37.657C56.1177 37.9851 55.4515 38.1491 54.6792 38.1491ZM54.6892 36.5085C55.0405 36.5085 55.3338 36.4091 55.5692 36.2102C55.8045 36.008 55.9818 35.733 56.1011 35.3849C56.2238 35.0369 56.2851 34.6409 56.2851 34.1967C56.2851 33.7526 56.2238 33.3565 56.1011 33.0085C55.9818 32.6605 55.8045 32.3854 55.5692 32.1832C55.3338 31.9811 55.0405 31.88 54.6892 31.88C54.3345 31.88 54.0363 31.9811 53.7943 32.1832C53.5557 32.3854 53.375 32.6605 53.2524 33.0085C53.1331 33.3565 53.0734 33.7526 53.0734 34.1967C53.0734 34.6409 53.1331 35.0369 53.2524 35.3849C53.375 35.733 53.5557 36.008 53.7943 36.2102C54.0363 36.4091 54.3345 36.5085 54.6892 36.5085ZM63.2652 38.1491C62.4929 38.1491 61.8251 37.9851 61.2616 37.657C60.7015 37.3255 60.269 36.8648 59.964 36.2749C59.6591 35.6816 59.5067 34.9938 59.5067 34.2116C59.5067 33.4228 59.6591 32.7334 59.964 32.1435C60.269 31.5502 60.7015 31.0895 61.2616 30.7614C61.8251 30.4299 62.4929 30.2642 63.2652 30.2642C64.0374 30.2642 64.7036 30.4299 65.2638 30.7614C65.8272 31.0895 66.2614 31.5502 66.5663 32.1435C66.8712 32.7334 67.0237 33.4228 67.0237 34.2116C67.0237 34.9938 66.8712 35.6816 66.5663 36.2749C66.2614 36.8648 65.8272 37.3255 65.2638 37.657C64.7036 37.9851 64.0374 38.1491 63.2652 38.1491ZM63.2751 36.5085C63.6265 36.5085 63.9198 36.4091 64.1551 36.2102C64.3904 36.008 64.5677 35.733 64.6871 35.3849C64.8097 35.0369 64.871 34.6409 64.871 34.1967C64.871 33.7526 64.8097 33.3565 64.6871 33.0085C64.5677 32.6605 64.3904 32.3854 64.1551 32.1832C63.9198 31.9811 63.6265 31.88 63.2751 31.88C62.9205 31.88 62.6222 31.9811 62.3802 32.1832C62.1416 32.3854 61.961 32.6605 61.8383 33.0085C61.719 33.3565 61.6594 33.7526 61.6594 34.1967C61.6594 34.6409 61.719 35.0369 61.8383 35.3849C61.961 35.733 62.1416 36.008 62.3802 36.2102C62.6222 36.4091 62.9205 36.5085 63.2751 36.5085ZM70.3199 35.8026L70.3248 33.2621H70.6331L73.0791 30.3636H75.5102L72.224 34.2017H71.7219L70.3199 35.8026ZM68.4008 38V27.8182H70.5187V38H68.4008ZM73.1736 38L70.9264 34.674L72.3383 33.1776L75.6544 38H73.1736Z" fill="white"/>
</svg>
