<svg width="272" height="236" viewBox="0 0 272 236" fill="none" xmlns="http://www.w3.org/2000/svg">
<rect width="272" height="236" rx="12" fill="#FFF4EE"/>
<rect x="112" y="21" width="48" height="48" rx="24" fill="#FA8F54"/>
<path d="M126.4 39.72C126.4 38.6597 127.26 37.8 128.32 37.8H143.68C144.741 37.8 145.6 38.6597 145.6 39.72V48.36C145.6 49.4205 144.741 50.28 143.68 50.28H128.32C127.26 50.28 126.4 49.4205 126.4 48.36V39.72Z" stroke="white" stroke-width="1.5" stroke-linecap="round" stroke-linejoin="round"/>
<path d="M132.16 53.16C132.16 53.16 133.936 53.16 136 53.16C137.288 53.16 138.688 53.16 139.84 53.16" stroke="white" stroke-width="1.5" stroke-linecap="round" stroke-linejoin="round"/>
<path d="M36.3008 93.2422V91.6364H45.8694V93.2422H42.0118V104H40.1524V93.2422H36.3008ZM49.644 98.4943V104H47.8389V91.6364H49.6198V96.2365H49.7345C49.9518 95.7375 50.2839 95.341 50.7306 95.0472C51.1773 94.7534 51.7609 94.6065 52.4813 94.6065C53.1172 94.6065 53.6726 94.7373 54.1475 94.9989C54.6264 95.2605 54.9967 95.6509 55.2583 96.1701C55.5239 96.6853 55.6567 97.3292 55.6567 98.1019V104H53.8517V98.3192C53.8517 97.6391 53.6766 97.1119 53.3265 96.7376C52.9763 96.3593 52.4894 96.1701 51.8655 96.1701C51.4389 96.1701 51.0566 96.2607 50.7185 96.4418C50.3845 96.6229 50.1209 96.8885 49.9277 97.2386C49.7385 97.5848 49.644 98.0033 49.644 98.4943ZM62.0619 104.187C61.1483 104.187 60.3615 103.992 59.7015 103.602C59.0455 103.207 58.5384 102.654 58.1802 101.941C57.826 101.225 57.6489 100.386 57.6489 99.424C57.6489 98.4742 57.826 97.6371 58.1802 96.9126C58.5384 96.1882 59.0374 95.6228 59.6773 95.2163C60.3213 94.8098 61.0739 94.6065 61.9351 94.6065C62.4583 94.6065 62.9655 94.6931 63.4565 94.8661C63.9475 95.0392 64.3882 95.3108 64.7785 95.6811C65.1689 96.0514 65.4768 96.5323 65.7022 97.1239C65.9276 97.7115 66.0403 98.4259 66.0403 99.267V99.907H58.6692V98.5547H64.2714C64.2714 98.0798 64.1748 97.6592 63.9817 97.293C63.7885 96.9227 63.5168 96.6309 63.1667 96.4176C62.8206 96.2043 62.4141 96.0977 61.9472 96.0977C61.4401 96.0977 60.9974 96.2224 60.6191 96.4719C60.2448 96.7174 59.955 97.0394 59.7498 97.4379C59.5485 97.8323 59.4479 98.2609 59.4479 98.7237V99.7802C59.4479 100.4 59.5566 100.927 59.7739 101.362C59.9953 101.797 60.3032 102.129 60.6976 102.358C61.092 102.583 61.5528 102.696 62.08 102.696C62.4221 102.696 62.734 102.648 63.0158 102.551C63.2975 102.451 63.541 102.302 63.7462 102.104C63.9515 101.907 64.1084 101.664 64.2171 101.374L65.9256 101.682C65.7887 102.185 65.5432 102.626 65.1891 103.004C64.8389 103.378 64.3982 103.67 63.867 103.879C63.3397 104.085 62.7381 104.187 62.0619 104.187ZM74.5523 104L71.8236 94.7273H73.6891L75.5062 101.537H75.5967L77.4199 94.7273H79.2853L81.0964 101.507H81.1869L82.992 94.7273H84.8574L82.1347 104H80.2935L78.4099 97.305H78.2711L76.3876 104H74.5523ZM90.2846 104.187C89.371 104.187 88.5842 103.992 87.9241 103.602C87.2681 103.207 86.761 102.654 86.4028 101.941C86.0487 101.225 85.8716 100.386 85.8716 99.424C85.8716 98.4742 86.0487 97.6371 86.4028 96.9126C86.761 96.1882 87.2601 95.6228 87.9 95.2163C88.5439 94.8098 89.2965 94.6065 90.1578 94.6065C90.681 94.6065 91.1881 94.6931 91.6791 94.8661C92.1701 95.0392 92.6108 95.3108 93.0012 95.6811C93.3916 96.0514 93.6995 96.5323 93.9248 97.1239C94.1502 97.7115 94.2629 98.4259 94.2629 99.267V99.907H86.8918V98.5547H92.4941C92.4941 98.0798 92.3975 97.6592 92.2043 97.293C92.0111 96.9227 91.7395 96.6309 91.3893 96.4176C91.0432 96.2043 90.6367 96.0977 90.1699 96.0977C89.6628 96.0977 89.2201 96.2224 88.8418 96.4719C88.4675 96.7174 88.1777 97.0394 87.9724 97.4379C87.7712 97.8323 87.6706 98.2609 87.6706 98.7237V99.7802C87.6706 100.4 87.7793 100.927 87.9966 101.362C88.2179 101.797 88.5258 102.129 88.9202 102.358C89.3146 102.583 89.7755 102.696 90.3027 102.696C90.6448 102.696 90.9567 102.648 91.2384 102.551C91.5201 102.451 91.7636 102.302 91.9689 102.104C92.1741 101.907 92.3311 101.664 92.4398 101.374L94.1482 101.682C94.0114 102.185 93.7659 102.626 93.4117 103.004C93.0616 103.378 92.6209 103.67 92.0896 103.879C91.5624 104.085 90.9607 104.187 90.2846 104.187ZM96.4106 104V91.6364H98.2156V96.2305H98.3243C98.4289 96.0373 98.5798 95.8139 98.777 95.5604C98.9742 95.3068 99.2479 95.0855 99.5981 94.8963C99.9482 94.7031 100.411 94.6065 100.987 94.6065C101.735 94.6065 102.403 94.7957 102.991 95.174C103.578 95.5523 104.039 96.0977 104.373 96.81C104.711 97.5224 104.88 98.3796 104.88 99.3817C104.88 100.384 104.713 101.243 104.379 101.96C104.045 102.672 103.586 103.221 103.003 103.608C102.419 103.99 101.753 104.181 101.005 104.181C100.441 104.181 99.9804 104.087 99.6222 103.897C99.268 103.708 98.9903 103.487 98.7891 103.233C98.5879 102.98 98.4329 102.754 98.3243 102.557H98.1733V104H96.4106ZM98.1794 99.3636C98.1794 100.016 98.274 100.587 98.4631 101.078C98.6523 101.569 98.9259 101.953 99.2841 102.231C99.6423 102.505 100.081 102.642 100.6 102.642C101.139 102.642 101.59 102.499 101.952 102.213C102.315 101.923 102.588 101.531 102.773 101.036C102.963 100.541 103.057 99.9834 103.057 99.3636C103.057 98.7519 102.965 98.2025 102.78 97.7156C102.598 97.2286 102.325 96.8442 101.958 96.5625C101.596 96.2808 101.144 96.1399 100.6 96.1399C100.077 96.1399 99.6343 96.2747 99.2721 96.5444C98.9139 96.814 98.6422 97.1903 98.4571 97.6733C98.2719 98.1562 98.1794 98.7197 98.1794 99.3636ZM113.856 96.9911L112.22 97.2809C112.151 97.0716 112.043 96.8724 111.894 96.6832C111.749 96.4941 111.552 96.3391 111.302 96.2184C111.053 96.0977 110.741 96.0373 110.366 96.0373C109.855 96.0373 109.429 96.152 109.087 96.3814C108.745 96.6068 108.573 96.8986 108.573 97.2567C108.573 97.5666 108.688 97.8162 108.918 98.0053C109.147 98.1945 109.517 98.3494 110.028 98.4702L111.501 98.8082C112.355 99.0054 112.99 99.3093 113.409 99.7198C113.828 100.13 114.037 100.664 114.037 101.32C114.037 101.875 113.876 102.37 113.554 102.805C113.236 103.235 112.791 103.573 112.22 103.819C111.652 104.064 110.994 104.187 110.246 104.187C109.207 104.187 108.36 103.966 107.704 103.523C107.048 103.076 106.646 102.442 106.497 101.621L108.241 101.356C108.35 101.811 108.573 102.155 108.912 102.388C109.25 102.618 109.69 102.732 110.234 102.732C110.825 102.732 111.298 102.609 111.652 102.364C112.006 102.114 112.184 101.811 112.184 101.452C112.184 101.163 112.075 100.919 111.858 100.722C111.644 100.525 111.316 100.376 110.874 100.275L109.304 99.9311C108.439 99.7339 107.799 99.42 107.384 98.9893C106.974 98.5587 106.768 98.0134 106.768 97.3533C106.768 96.806 106.921 96.3271 107.227 95.9165C107.533 95.506 107.956 95.1861 108.495 94.9567C109.034 94.7232 109.652 94.6065 110.348 94.6065C111.35 94.6065 112.139 94.8239 112.715 95.2585C113.29 95.6892 113.671 96.2667 113.856 96.9911ZM116.022 104V94.7273H117.827V104H116.022ZM116.933 93.2965C116.619 93.2965 116.35 93.1919 116.124 92.9826C115.903 92.7693 115.792 92.5157 115.792 92.2219C115.792 91.9241 115.903 91.6706 116.124 91.4613C116.35 91.248 116.619 91.1413 116.933 91.1413C117.247 91.1413 117.515 91.248 117.736 91.4613C117.961 91.6706 118.074 91.9241 118.074 92.2219C118.074 92.5157 117.961 92.7693 117.736 92.9826C117.515 93.1919 117.247 93.2965 116.933 93.2965ZM124.583 94.7273V96.1761H119.518V94.7273H124.583ZM120.877 92.5057H122.682V101.277C122.682 101.627 122.734 101.891 122.839 102.068C122.943 102.241 123.078 102.36 123.243 102.424C123.412 102.485 123.595 102.515 123.793 102.515C123.937 102.515 124.064 102.505 124.173 102.485C124.282 102.465 124.366 102.449 124.426 102.436L124.752 103.928C124.648 103.968 124.499 104.008 124.306 104.048C124.113 104.093 123.871 104.117 123.581 104.121C123.106 104.129 122.664 104.044 122.253 103.867C121.843 103.69 121.511 103.416 121.257 103.046C121.004 102.676 120.877 102.211 120.877 101.652V92.5057ZM130.477 104.187C129.563 104.187 128.777 103.992 128.117 103.602C127.461 103.207 126.953 102.654 126.595 101.941C126.241 101.225 126.064 100.386 126.064 99.424C126.064 98.4742 126.241 97.6371 126.595 96.9126C126.953 96.1882 127.452 95.6228 128.092 95.2163C128.736 94.8098 129.489 94.6065 130.35 94.6065C130.873 94.6065 131.38 94.6931 131.871 94.8661C132.362 95.0392 132.803 95.3108 133.194 95.6811C133.584 96.0514 133.892 96.5323 134.117 97.1239C134.343 97.7115 134.455 98.4259 134.455 99.267V99.907H127.084V98.5547H132.686C132.686 98.0798 132.59 97.6592 132.397 97.293C132.204 96.9227 131.932 96.6309 131.582 96.4176C131.236 96.2043 130.829 96.0977 130.362 96.0977C129.855 96.0977 129.412 96.2224 129.034 96.4719C128.66 96.7174 128.37 97.0394 128.165 97.4379C127.964 97.8323 127.863 98.2609 127.863 98.7237V99.7802C127.863 100.4 127.972 100.927 128.189 101.362C128.41 101.797 128.718 102.129 129.113 102.358C129.507 102.583 129.968 102.696 130.495 102.696C130.837 102.696 131.149 102.648 131.431 102.551C131.713 102.451 131.956 102.302 132.161 102.104C132.367 101.907 132.523 101.664 132.632 101.374L134.341 101.682C134.204 102.185 133.958 102.626 133.604 103.004C133.254 103.378 132.813 103.67 132.282 103.879C131.755 104.085 131.153 104.187 130.477 104.187ZM140.957 104V94.7273H142.762V104H140.957ZM141.869 93.2965C141.555 93.2965 141.285 93.1919 141.06 92.9826C140.838 92.7693 140.728 92.5157 140.728 92.2219C140.728 91.9241 140.838 91.6706 141.06 91.4613C141.285 91.248 141.555 91.1413 141.869 91.1413C142.183 91.1413 142.45 91.248 142.672 91.4613C142.897 91.6706 143.01 91.9241 143.01 92.2219C143.01 92.5157 142.897 92.7693 142.672 92.9826C142.45 93.1919 142.183 93.2965 141.869 93.2965ZM152.139 96.9911L150.503 97.2809C150.435 97.0716 150.326 96.8724 150.177 96.6832C150.032 96.4941 149.835 96.3391 149.585 96.2184C149.336 96.0977 149.024 96.0373 148.65 96.0373C148.139 96.0373 147.712 96.152 147.37 96.3814C147.028 96.6068 146.857 96.8986 146.857 97.2567C146.857 97.5666 146.971 97.8162 147.201 98.0053C147.43 98.1945 147.8 98.3494 148.312 98.4702L149.785 98.8082C150.638 99.0054 151.274 99.3093 151.692 99.7198C152.111 100.13 152.32 100.664 152.32 101.32C152.32 101.875 152.159 102.37 151.837 102.805C151.519 103.235 151.074 103.573 150.503 103.819C149.936 104.064 149.277 104.187 148.529 104.187C147.491 104.187 146.643 103.966 145.987 103.523C145.331 103.076 144.929 102.442 144.78 101.621L146.525 101.356C146.633 101.811 146.857 102.155 147.195 102.388C147.533 102.618 147.973 102.732 148.517 102.732C149.108 102.732 149.581 102.609 149.936 102.364C150.29 102.114 150.467 101.811 150.467 101.452C150.467 101.163 150.358 100.919 150.141 100.722C149.927 100.525 149.599 100.376 149.157 100.275L147.587 99.9311C146.722 99.7339 146.082 99.42 145.667 98.9893C145.257 98.5587 145.052 98.0134 145.052 97.3533C145.052 96.806 145.205 96.3271 145.51 95.9165C145.816 95.506 146.239 95.1861 146.778 94.9567C147.317 94.7232 147.935 94.6065 148.632 94.6065C149.634 94.6065 150.422 94.8239 150.998 95.2585C151.574 95.6892 151.954 96.2667 152.139 96.9911ZM161.502 104.205C160.915 104.205 160.383 104.097 159.909 103.879C159.434 103.658 159.057 103.338 158.78 102.919C158.506 102.501 158.369 101.988 158.369 101.38C158.369 100.857 158.47 100.426 158.671 100.088C158.872 99.75 159.144 99.4824 159.486 99.2852C159.828 99.0879 160.21 98.939 160.633 98.8384C161.056 98.7378 161.486 98.6613 161.925 98.609C162.48 98.5446 162.931 98.4923 163.277 98.4521C163.623 98.4078 163.875 98.3374 164.032 98.2408C164.189 98.1442 164.267 97.9872 164.267 97.7699V97.7276C164.267 97.2004 164.118 96.7919 163.82 96.5021C163.527 96.2124 163.088 96.0675 162.504 96.0675C161.897 96.0675 161.418 96.2023 161.068 96.4719C160.721 96.7376 160.482 97.0334 160.349 97.3594L158.653 96.973C158.854 96.4096 159.148 95.9548 159.534 95.6087C159.925 95.2585 160.373 95.005 160.88 94.848C161.388 94.687 161.921 94.6065 162.48 94.6065C162.851 94.6065 163.243 94.6508 163.657 94.7393C164.076 94.8239 164.466 94.9808 164.829 95.2102C165.195 95.4396 165.495 95.7676 165.728 96.1942C165.962 96.6168 166.078 97.1662 166.078 97.8423V104H164.315V102.732H164.243C164.126 102.966 163.951 103.195 163.718 103.42C163.484 103.646 163.185 103.833 162.818 103.982C162.452 104.131 162.013 104.205 161.502 104.205ZM161.895 102.756C162.394 102.756 162.82 102.658 163.174 102.461C163.533 102.263 163.804 102.006 163.989 101.688C164.179 101.366 164.273 101.022 164.273 100.656V99.4602C164.209 99.5246 164.084 99.585 163.899 99.6413C163.718 99.6937 163.511 99.7399 163.277 99.7802C163.044 99.8164 162.816 99.8506 162.595 99.8828C162.374 99.911 162.188 99.9351 162.04 99.9553C161.689 99.9995 161.369 100.074 161.08 100.179C160.794 100.283 160.565 100.434 160.391 100.631C160.222 100.825 160.138 101.082 160.138 101.404C160.138 101.851 160.303 102.189 160.633 102.418C160.963 102.644 161.384 102.756 161.895 102.756ZM174.992 104L172.263 94.7273H174.129L175.946 101.537H176.036L177.859 94.7273H179.725L181.536 101.507H181.626L183.431 94.7273H185.297L182.574 104H180.733L178.849 97.305H178.711L176.827 104H174.992ZM189.708 104.205C189.121 104.205 188.589 104.097 188.115 103.879C187.64 103.658 187.263 103.338 186.986 102.919C186.712 102.501 186.575 101.988 186.575 101.38C186.575 100.857 186.676 100.426 186.877 100.088C187.078 99.75 187.35 99.4824 187.692 99.2852C188.034 99.0879 188.416 98.939 188.839 98.8384C189.262 98.7378 189.692 98.6613 190.131 98.609C190.686 98.5446 191.137 98.4923 191.483 98.4521C191.829 98.4078 192.081 98.3374 192.238 98.2408C192.395 98.1442 192.473 97.9872 192.473 97.7699V97.7276C192.473 97.2004 192.324 96.7919 192.027 96.5021C191.733 96.2124 191.294 96.0675 190.71 96.0675C190.103 96.0675 189.624 96.2023 189.274 96.4719C188.928 96.7376 188.688 97.0334 188.555 97.3594L186.859 96.973C187.06 96.4096 187.354 95.9548 187.74 95.6087C188.131 95.2585 188.579 95.005 189.087 94.848C189.594 94.687 190.127 94.6065 190.686 94.6065C191.057 94.6065 191.449 94.6508 191.864 94.7393C192.282 94.8239 192.672 94.9808 193.035 95.2102C193.401 95.4396 193.701 95.7676 193.934 96.1942C194.168 96.6168 194.284 97.1662 194.284 97.8423V104H192.522V102.732H192.449C192.332 102.966 192.157 103.195 191.924 103.42C191.69 103.646 191.391 103.833 191.024 103.982C190.658 104.131 190.219 104.205 189.708 104.205ZM190.101 102.756C190.6 102.756 191.026 102.658 191.381 102.461C191.739 102.263 192.01 102.006 192.196 101.688C192.385 101.366 192.479 101.022 192.479 100.656V99.4602C192.415 99.5246 192.29 99.585 192.105 99.6413C191.924 99.6937 191.717 99.7399 191.483 99.7802C191.25 99.8164 191.022 99.8506 190.801 99.8828C190.58 99.911 190.395 99.9351 190.246 99.9553C189.895 99.9995 189.576 100.074 189.286 100.179C189 100.283 188.771 100.434 188.598 100.631C188.428 100.825 188.344 101.082 188.344 101.404C188.344 101.851 188.509 102.189 188.839 102.418C189.169 102.644 189.59 102.756 190.101 102.756ZM197.497 107.477C197.228 107.477 196.982 107.455 196.761 107.411C196.54 107.371 196.375 107.326 196.266 107.278L196.701 105.799C197.031 105.888 197.324 105.926 197.582 105.914C197.84 105.902 198.067 105.805 198.264 105.624C198.465 105.443 198.642 105.147 198.795 104.737L199.019 104.121L195.626 94.7273H197.558L199.906 101.923H200.003L202.351 94.7273H204.289L200.468 105.238C200.291 105.721 200.065 106.129 199.792 106.463C199.518 106.801 199.192 107.055 198.814 107.224C198.435 107.393 197.997 107.477 197.497 107.477ZM214.897 94.7273V96.1761H209.657V94.7273H214.897ZM211.094 104V93.6527C211.094 93.0732 211.221 92.5922 211.474 92.2099C211.728 91.8235 212.064 91.5357 212.483 91.3466C212.901 91.1534 213.356 91.0568 213.847 91.0568C214.209 91.0568 214.519 91.087 214.777 91.1474C215.034 91.2037 215.225 91.256 215.35 91.3043L214.928 92.7653C214.843 92.7411 214.734 92.7129 214.602 92.6808C214.469 92.6445 214.308 92.6264 214.119 92.6264C213.68 92.6264 213.366 92.7351 213.177 92.9524C212.992 93.1697 212.899 93.4837 212.899 93.8942V104H211.094ZM220.3 104.187C219.431 104.187 218.673 103.988 218.025 103.589C217.377 103.191 216.874 102.634 216.515 101.917C216.157 101.201 215.978 100.364 215.978 99.4059C215.978 98.444 216.157 97.6029 216.515 96.8825C216.874 96.162 217.377 95.6026 218.025 95.2042C218.673 94.8058 219.431 94.6065 220.3 94.6065C221.17 94.6065 221.928 94.8058 222.576 95.2042C223.224 95.6026 223.727 96.162 224.086 96.8825C224.444 97.6029 224.623 98.444 224.623 99.4059C224.623 100.364 224.444 101.201 224.086 101.917C223.727 102.634 223.224 103.191 222.576 103.589C221.928 103.988 221.17 104.187 220.3 104.187ZM220.307 102.672C220.87 102.672 221.337 102.523 221.707 102.225C222.077 101.927 222.351 101.531 222.528 101.036C222.709 100.541 222.8 99.9955 222.8 99.3999C222.8 98.8082 222.709 98.2649 222.528 97.7699C222.351 97.2708 222.077 96.8704 221.707 96.5685C221.337 96.2667 220.87 96.1158 220.307 96.1158C219.739 96.1158 219.268 96.2667 218.894 96.5685C218.524 96.8704 218.248 97.2708 218.067 97.7699C217.89 98.2649 217.801 98.8082 217.801 99.3999C217.801 99.9955 217.89 100.541 218.067 101.036C218.248 101.531 218.524 101.927 218.894 102.225C219.268 102.523 219.739 102.672 220.307 102.672ZM226.638 104V94.7273H228.382V96.2003H228.479C228.648 95.7012 228.946 95.3088 229.372 95.0231C229.803 94.7333 230.29 94.5884 230.833 94.5884C230.946 94.5884 231.079 94.5924 231.232 94.6005C231.389 94.6085 231.512 94.6186 231.6 94.6307V96.3572C231.528 96.3371 231.399 96.315 231.214 96.2908C231.029 96.2627 230.843 96.2486 230.658 96.2486C230.232 96.2486 229.851 96.3391 229.517 96.5202C229.187 96.6973 228.926 96.9448 228.733 97.2628C228.539 97.5767 228.443 97.9349 228.443 98.3374V104H226.638ZM32.5738 133.477V120.727H34.3366V122.23H34.4875C34.5921 122.037 34.743 121.814 34.9403 121.56C35.1375 121.307 35.4111 121.085 35.7613 120.896C36.1114 120.703 36.5742 120.607 37.1498 120.607C37.8983 120.607 38.5664 120.796 39.154 121.174C39.7416 121.552 40.2024 122.098 40.5365 122.81C40.8746 123.522 41.0436 124.38 41.0436 125.382C41.0436 126.384 40.8766 127.243 40.5425 127.96C40.2085 128.672 39.7497 129.221 39.1661 129.608C38.5825 129.99 37.9165 130.181 37.1679 130.181C36.6044 130.181 36.1436 130.087 35.7854 129.897C35.4313 129.708 35.1536 129.487 34.9523 129.233C34.7511 128.98 34.5961 128.754 34.4875 128.557H34.3788V133.477H32.5738ZM34.3426 125.364C34.3426 126.016 34.4372 126.587 34.6263 127.078C34.8155 127.569 35.0892 127.953 35.4474 128.231C35.8055 128.505 36.2442 128.642 36.7634 128.642C37.3027 128.642 37.7535 128.499 38.1157 128.213C38.4779 127.923 38.7516 127.531 38.9367 127.036C39.1259 126.541 39.2204 125.983 39.2204 125.364C39.2204 124.752 39.1279 124.203 38.9427 123.716C38.7616 123.229 38.488 122.844 38.1217 122.562C37.7595 122.281 37.3067 122.14 36.7634 122.14C36.2402 122.14 35.7975 122.275 35.4353 122.544C35.0771 122.814 34.8054 123.19 34.6203 123.673C34.4352 124.156 34.3426 124.72 34.3426 125.364ZM45.7645 130.205C45.1769 130.205 44.6456 130.097 44.1707 129.879C43.6958 129.658 43.3195 129.338 43.0418 128.919C42.7681 128.501 42.6313 127.988 42.6313 127.38C42.6313 126.857 42.7319 126.426 42.9331 126.088C43.1344 125.75 43.406 125.482 43.7481 125.285C44.0902 125.088 44.4726 124.939 44.8952 124.838C45.3177 124.738 45.7484 124.661 46.1871 124.609C46.7425 124.545 47.1932 124.492 47.5393 124.452C47.8854 124.408 48.137 124.337 48.2939 124.241C48.4509 124.144 48.5294 123.987 48.5294 123.77V123.728C48.5294 123.2 48.3805 122.792 48.0827 122.502C47.7889 122.212 47.3502 122.067 46.7666 122.067C46.1589 122.067 45.68 122.202 45.3298 122.472C44.9837 122.738 44.7442 123.033 44.6114 123.359L42.915 122.973C43.1163 122.41 43.4101 121.955 43.7964 121.609C44.1868 121.259 44.6356 121.005 45.1427 120.848C45.6498 120.687 46.183 120.607 46.7425 120.607C47.1127 120.607 47.5051 120.651 47.9197 120.739C48.3382 120.824 48.7286 120.981 49.0908 121.21C49.4571 121.44 49.7569 121.768 49.9903 122.194C50.2238 122.617 50.3405 123.166 50.3405 123.842V130H48.5777V128.732H48.5052C48.3885 128.966 48.2135 129.195 47.98 129.42C47.7466 129.646 47.4468 129.833 47.0805 129.982C46.7143 130.131 46.2756 130.205 45.7645 130.205ZM46.1569 128.756C46.6559 128.756 47.0825 128.658 47.4367 128.461C47.7949 128.263 48.0666 128.006 48.2517 127.688C48.4408 127.366 48.5354 127.022 48.5354 126.656V125.46C48.471 125.525 48.3463 125.585 48.1611 125.641C47.98 125.694 47.7728 125.74 47.5393 125.78C47.3059 125.816 47.0785 125.851 46.8572 125.883C46.6358 125.911 46.4507 125.935 46.3018 125.955C45.9516 126 45.6317 126.074 45.3419 126.179C45.0561 126.283 44.8267 126.434 44.6537 126.631C44.4846 126.825 44.4001 127.082 44.4001 127.404C44.4001 127.851 44.5651 128.189 44.8952 128.418C45.2252 128.644 45.6457 128.756 46.1569 128.756ZM52.7447 130V120.727H54.4893V122.2H54.5859C54.755 121.701 55.0528 121.309 55.4794 121.023C55.91 120.733 56.397 120.588 56.9403 120.588C57.053 120.588 57.1858 120.592 57.3388 120.6C57.4957 120.609 57.6185 120.619 57.707 120.631V122.357C57.6346 122.337 57.5058 122.315 57.3207 122.291C57.1355 122.263 56.9504 122.249 56.7653 122.249C56.3387 122.249 55.9583 122.339 55.6243 122.52C55.2943 122.697 55.0327 122.945 54.8395 123.263C54.6463 123.577 54.5497 123.935 54.5497 124.337V130H52.7447ZM64.1454 120.727V122.176H59.0804V120.727H64.1454ZM60.4387 118.506H62.2438V127.277C62.2438 127.627 62.2961 127.891 62.4007 128.068C62.5054 128.241 62.6402 128.36 62.8052 128.424C62.9743 128.485 63.1574 128.515 63.3546 128.515C63.4995 128.515 63.6262 128.505 63.7349 128.485C63.8436 128.465 63.9281 128.449 63.9885 128.436L64.3145 129.928C64.2098 129.968 64.0609 130.008 63.8677 130.048C63.6745 130.093 63.4331 130.117 63.1433 130.121C62.6684 130.129 62.2257 130.044 61.8152 129.867C61.4047 129.69 61.0726 129.416 60.8191 129.046C60.5655 128.676 60.4387 128.211 60.4387 127.652V118.506ZM67.9472 124.494V130H66.1421V120.727H67.8747V122.237H67.9894C68.2027 121.746 68.5368 121.351 68.9916 121.053C69.4504 120.755 70.0279 120.607 70.7242 120.607C71.356 120.607 71.9094 120.739 72.3843 121.005C72.8592 121.267 73.2275 121.657 73.4891 122.176C73.7507 122.695 73.8815 123.337 73.8815 124.102V130H72.0764V124.319C72.0764 123.647 71.9014 123.122 71.5512 122.744C71.2011 122.361 70.7201 122.17 70.1084 122.17C69.6898 122.17 69.3176 122.261 68.9916 122.442C68.6696 122.623 68.414 122.888 68.2249 123.239C68.0397 123.585 67.9472 124.003 67.9472 124.494ZM80.2987 130.187C79.3852 130.187 78.5983 129.992 77.9383 129.602C77.2823 129.207 76.7752 128.654 76.417 127.941C76.0628 127.225 75.8857 126.386 75.8857 125.424C75.8857 124.474 76.0628 123.637 76.417 122.913C76.7752 122.188 77.2742 121.623 77.9142 121.216C78.5581 120.81 79.3107 120.607 80.172 120.607C80.6952 120.607 81.2023 120.693 81.6933 120.866C82.1843 121.039 82.625 121.311 83.0154 121.681C83.4057 122.051 83.7136 122.532 83.939 123.124C84.1644 123.712 84.2771 124.426 84.2771 125.267V125.907H76.906V124.555H82.5083C82.5083 124.08 82.4117 123.659 82.2185 123.293C82.0253 122.923 81.7536 122.631 81.4035 122.418C81.0574 122.204 80.6509 122.098 80.184 122.098C79.6769 122.098 79.2342 122.222 78.8559 122.472C78.4816 122.717 78.1919 123.039 77.9866 123.438C77.7854 123.832 77.6847 124.261 77.6847 124.724V125.78C77.6847 126.4 77.7934 126.927 78.0107 127.362C78.2321 127.797 78.54 128.129 78.9344 128.358C79.3288 128.583 79.7896 128.696 80.3169 128.696C80.6589 128.696 80.9709 128.648 81.2526 128.551C81.5343 128.451 81.7778 128.302 81.983 128.104C82.1883 127.907 82.3453 127.664 82.4539 127.374L84.1624 127.682C84.0255 128.185 83.78 128.626 83.4259 129.004C83.0757 129.378 82.635 129.67 82.1038 129.879C81.5766 130.085 80.9749 130.187 80.2987 130.187ZM86.2798 130V120.727H88.0245V122.2H88.1211C88.2901 121.701 88.5879 121.309 89.0146 121.023C89.4452 120.733 89.9322 120.588 90.4755 120.588C90.5882 120.588 90.721 120.592 90.8739 120.6C91.0309 120.609 91.1536 120.619 91.2422 120.631V122.357C91.1697 122.337 91.041 122.315 90.8558 122.291C90.6707 122.263 90.4856 122.249 90.3004 122.249C89.8738 122.249 89.4935 122.339 89.1594 122.52C88.8294 122.697 88.5678 122.945 88.3746 123.263C88.1815 123.577 88.0849 123.935 88.0849 124.337V130H86.2798ZM99.7528 122.991L98.1167 123.281C98.0483 123.072 97.9397 122.872 97.7907 122.683C97.6459 122.494 97.4487 122.339 97.1991 122.218C96.9496 122.098 96.6377 122.037 96.2634 122.037C95.7523 122.037 95.3257 122.152 94.9836 122.381C94.6415 122.607 94.4704 122.899 94.4704 123.257C94.4704 123.567 94.5851 123.816 94.8145 124.005C95.0439 124.194 95.4142 124.349 95.9253 124.47L97.3983 124.808C98.2516 125.005 98.8875 125.309 99.306 125.72C99.7246 126.13 99.9339 126.664 99.9339 127.32C99.9339 127.875 99.7729 128.37 99.4509 128.805C99.133 129.235 98.6882 129.573 98.1167 129.819C97.5493 130.064 96.8912 130.187 96.1427 130.187C95.1043 130.187 94.2571 129.966 93.6011 129.523C92.9451 129.076 92.5426 128.442 92.3937 127.621L94.1384 127.356C94.2471 127.811 94.4704 128.155 94.8085 128.388C95.1466 128.618 95.5873 128.732 96.1306 128.732C96.7222 128.732 97.1951 128.609 97.5493 128.364C97.9034 128.114 98.0805 127.811 98.0805 127.452C98.0805 127.163 97.9719 126.919 97.7545 126.722C97.5412 126.525 97.2132 126.376 96.7705 126.275L95.2009 125.931C94.3356 125.734 93.6957 125.42 93.2812 124.989C92.8706 124.559 92.6654 124.013 92.6654 123.353C92.6654 122.806 92.8183 122.327 93.1242 121.917C93.4301 121.506 93.8527 121.186 94.392 120.957C94.9313 120.723 95.549 120.607 96.2453 120.607C97.2474 120.607 98.0363 120.824 98.6118 121.259C99.1873 121.689 99.5676 122.267 99.7528 122.991ZM110.746 120.727V122.176H105.681V120.727H110.746ZM107.039 118.506H108.844V127.277C108.844 127.627 108.897 127.891 109.001 128.068C109.106 128.241 109.241 128.36 109.406 128.424C109.575 128.485 109.758 128.515 109.955 128.515C110.1 128.515 110.227 128.505 110.335 128.485C110.444 128.465 110.529 128.449 110.589 128.436L110.915 129.928C110.81 129.968 110.661 130.008 110.468 130.048C110.275 130.093 110.034 130.117 109.744 130.121C109.269 130.129 108.826 130.044 108.416 129.867C108.005 129.69 107.673 129.416 107.42 129.046C107.166 128.676 107.039 128.211 107.039 127.652V118.506ZM116.549 130.187C115.68 130.187 114.921 129.988 114.273 129.589C113.625 129.191 113.122 128.634 112.764 127.917C112.406 127.201 112.227 126.364 112.227 125.406C112.227 124.444 112.406 123.603 112.764 122.882C113.122 122.162 113.625 121.603 114.273 121.204C114.921 120.806 115.68 120.607 116.549 120.607C117.418 120.607 118.177 120.806 118.825 121.204C119.473 121.603 119.976 122.162 120.334 122.882C120.692 123.603 120.871 124.444 120.871 125.406C120.871 126.364 120.692 127.201 120.334 127.917C119.976 128.634 119.473 129.191 118.825 129.589C118.177 129.988 117.418 130.187 116.549 130.187ZM116.555 128.672C117.118 128.672 117.585 128.523 117.956 128.225C118.326 127.927 118.6 127.531 118.777 127.036C118.958 126.541 119.048 125.996 119.048 125.4C119.048 124.808 118.958 124.265 118.777 123.77C118.6 123.271 118.326 122.87 117.956 122.569C117.585 122.267 117.118 122.116 116.555 122.116C115.988 122.116 115.517 122.267 115.142 122.569C114.772 122.87 114.496 123.271 114.315 123.77C114.138 124.265 114.05 124.808 114.05 125.4C114.05 125.996 114.138 126.541 114.315 127.036C114.496 127.531 114.772 127.927 115.142 128.225C115.517 128.523 115.988 128.672 116.555 128.672ZM131.291 130.187C130.394 130.187 129.621 129.984 128.973 129.577C128.329 129.167 127.834 128.601 127.488 127.881C127.142 127.161 126.969 126.336 126.969 125.406C126.969 124.464 127.146 123.633 127.5 122.913C127.854 122.188 128.353 121.623 128.997 121.216C129.641 120.81 130.4 120.607 131.273 120.607C131.977 120.607 132.605 120.737 133.157 120.999C133.708 121.257 134.153 121.619 134.491 122.086C134.833 122.552 135.036 123.098 135.1 123.722H133.344C133.247 123.287 133.026 122.913 132.68 122.599C132.338 122.285 131.879 122.128 131.303 122.128C130.8 122.128 130.359 122.261 129.981 122.526C129.607 122.788 129.315 123.162 129.106 123.649C128.897 124.132 128.792 124.704 128.792 125.364C128.792 126.04 128.895 126.623 129.1 127.114C129.305 127.605 129.595 127.986 129.969 128.255C130.347 128.525 130.792 128.66 131.303 128.66C131.645 128.66 131.955 128.597 132.233 128.473C132.515 128.344 132.75 128.161 132.939 127.923C133.132 127.686 133.267 127.4 133.344 127.066H135.1C135.036 127.666 134.841 128.201 134.515 128.672C134.189 129.143 133.752 129.513 133.205 129.783C132.662 130.052 132.024 130.187 131.291 130.187ZM140.937 130.187C140.067 130.187 139.309 129.988 138.661 129.589C138.013 129.191 137.51 128.634 137.152 127.917C136.793 127.201 136.614 126.364 136.614 125.406C136.614 124.444 136.793 123.603 137.152 122.882C137.51 122.162 138.013 121.603 138.661 121.204C139.309 120.806 140.067 120.607 140.937 120.607C141.806 120.607 142.565 120.806 143.213 121.204C143.861 121.603 144.364 122.162 144.722 122.882C145.08 123.603 145.259 124.444 145.259 125.406C145.259 126.364 145.08 127.201 144.722 127.917C144.364 128.634 143.861 129.191 143.213 129.589C142.565 129.988 141.806 130.187 140.937 130.187ZM140.943 128.672C141.506 128.672 141.973 128.523 142.343 128.225C142.714 127.927 142.987 127.531 143.164 127.036C143.345 126.541 143.436 125.996 143.436 125.4C143.436 124.808 143.345 124.265 143.164 123.77C142.987 123.271 142.714 122.87 142.343 122.569C141.973 122.267 141.506 122.116 140.943 122.116C140.375 122.116 139.904 122.267 139.53 122.569C139.16 122.87 138.884 123.271 138.703 123.77C138.526 124.265 138.437 124.808 138.437 125.4C138.437 125.996 138.526 126.541 138.703 127.036C138.884 127.531 139.16 127.927 139.53 128.225C139.904 128.523 140.375 128.672 140.943 128.672ZM147.274 130V120.727H149.007V122.237H149.121C149.314 121.725 149.63 121.327 150.069 121.041C150.508 120.751 151.033 120.607 151.645 120.607C152.265 120.607 152.784 120.751 153.202 121.041C153.625 121.331 153.937 121.729 154.138 122.237H154.235C154.456 121.741 154.808 121.347 155.291 121.053C155.774 120.755 156.349 120.607 157.018 120.607C157.859 120.607 158.545 120.87 159.076 121.397C159.611 121.925 159.879 122.719 159.879 123.782V130H158.074V123.951C158.074 123.323 157.903 122.868 157.561 122.587C157.219 122.305 156.81 122.164 156.335 122.164C155.748 122.164 155.291 122.345 154.965 122.707C154.639 123.066 154.476 123.526 154.476 124.09V130H152.677V123.836C152.677 123.333 152.52 122.929 152.206 122.623C151.892 122.317 151.484 122.164 150.981 122.164C150.639 122.164 150.323 122.255 150.033 122.436C149.747 122.613 149.516 122.86 149.339 123.178C149.166 123.496 149.079 123.864 149.079 124.283V130H147.274ZM162.298 130V120.727H164.031V122.237H164.146C164.339 121.725 164.655 121.327 165.093 121.041C165.532 120.751 166.057 120.607 166.669 120.607C167.289 120.607 167.808 120.751 168.227 121.041C168.649 121.331 168.961 121.729 169.162 122.237H169.259C169.48 121.741 169.832 121.347 170.315 121.053C170.798 120.755 171.374 120.607 172.042 120.607C172.883 120.607 173.569 120.87 174.101 121.397C174.636 121.925 174.903 122.719 174.903 123.782V130H173.098V123.951C173.098 123.323 172.927 122.868 172.585 122.587C172.243 122.305 171.835 122.164 171.36 122.164C170.772 122.164 170.315 122.345 169.989 122.707C169.663 123.066 169.5 123.526 169.5 124.09V130H167.701V123.836C167.701 123.333 167.544 122.929 167.231 122.623C166.917 122.317 166.508 122.164 166.005 122.164C165.663 122.164 165.347 122.255 165.057 122.436C164.772 122.613 164.54 122.86 164.363 123.178C164.19 123.496 164.103 123.864 164.103 124.283V130H162.298ZM183.197 126.154V120.727H185.008V130H183.233V128.394H183.136C182.923 128.889 182.581 129.302 182.11 129.632C181.643 129.958 181.062 130.121 180.365 130.121C179.77 130.121 179.243 129.99 178.784 129.728C178.329 129.463 177.971 129.07 177.709 128.551C177.452 128.032 177.323 127.39 177.323 126.625V120.727H179.128V126.408C179.128 127.04 179.303 127.543 179.653 127.917C180.003 128.292 180.458 128.479 181.017 128.479C181.355 128.479 181.692 128.394 182.026 128.225C182.364 128.056 182.643 127.801 182.865 127.458C183.09 127.116 183.201 126.682 183.197 126.154ZM189.238 124.494V130H187.433V120.727H189.166V122.237H189.28C189.494 121.746 189.828 121.351 190.283 121.053C190.741 120.755 191.319 120.607 192.015 120.607C192.647 120.607 193.2 120.739 193.675 121.005C194.15 121.267 194.518 121.657 194.78 122.176C195.042 122.695 195.172 123.337 195.172 124.102V130H193.367V124.319C193.367 123.647 193.192 123.122 192.842 122.744C192.492 122.361 192.011 122.17 191.399 122.17C190.981 122.17 190.609 122.261 190.283 122.442C189.961 122.623 189.705 122.888 189.516 123.239C189.331 123.585 189.238 124.003 189.238 124.494ZM197.593 130V120.727H199.398V130H197.593ZM198.505 119.297C198.191 119.297 197.921 119.192 197.696 118.983C197.475 118.769 197.364 118.516 197.364 118.222C197.364 117.924 197.475 117.671 197.696 117.461C197.921 117.248 198.191 117.141 198.505 117.141C198.819 117.141 199.086 117.248 199.308 117.461C199.533 117.671 199.646 117.924 199.646 118.222C199.646 118.516 199.533 118.769 199.308 118.983C199.086 119.192 198.819 119.297 198.505 119.297ZM205.733 130.187C204.835 130.187 204.062 129.984 203.414 129.577C202.77 129.167 202.275 128.601 201.929 127.881C201.583 127.161 201.41 126.336 201.41 125.406C201.41 124.464 201.587 123.633 201.941 122.913C202.296 122.188 202.795 121.623 203.439 121.216C204.083 120.81 204.841 120.607 205.714 120.607C206.419 120.607 207.047 120.737 207.598 120.999C208.149 121.257 208.594 121.619 208.932 122.086C209.274 122.552 209.478 123.098 209.542 123.722H207.785C207.689 123.287 207.467 122.913 207.121 122.599C206.779 122.285 206.32 122.128 205.745 122.128C205.242 122.128 204.801 122.261 204.423 122.526C204.048 122.788 203.757 123.162 203.547 123.649C203.338 124.132 203.233 124.704 203.233 125.364C203.233 126.04 203.336 126.623 203.541 127.114C203.746 127.605 204.036 127.986 204.411 128.255C204.789 128.525 205.234 128.66 205.745 128.66C206.087 128.66 206.397 128.597 206.674 128.473C206.956 128.344 207.192 128.161 207.381 127.923C207.574 127.686 207.709 127.4 207.785 127.066H209.542C209.478 127.666 209.282 128.201 208.956 128.672C208.63 129.143 208.194 129.513 207.646 129.783C207.103 130.052 206.465 130.187 205.733 130.187ZM214.171 130.205C213.583 130.205 213.052 130.097 212.577 129.879C212.102 129.658 211.726 129.338 211.448 128.919C211.174 128.501 211.038 127.988 211.038 127.38C211.038 126.857 211.138 126.426 211.339 126.088C211.541 125.75 211.812 125.482 212.154 125.285C212.496 125.088 212.879 124.939 213.301 124.838C213.724 124.738 214.155 124.661 214.593 124.609C215.149 124.545 215.599 124.492 215.946 124.452C216.292 124.408 216.543 124.337 216.7 124.241C216.857 124.144 216.936 123.987 216.936 123.77V123.728C216.936 123.2 216.787 122.792 216.489 122.502C216.195 122.212 215.756 122.067 215.173 122.067C214.565 122.067 214.086 122.202 213.736 122.472C213.39 122.738 213.15 123.033 213.018 123.359L211.321 122.973C211.523 122.41 211.816 121.955 212.203 121.609C212.593 121.259 213.042 121.005 213.549 120.848C214.056 120.687 214.589 120.607 215.149 120.607C215.519 120.607 215.911 120.651 216.326 120.739C216.744 120.824 217.135 120.981 217.497 121.21C217.863 121.44 218.163 121.768 218.397 122.194C218.63 122.617 218.747 123.166 218.747 123.842V130H216.984V128.732H216.911C216.795 128.966 216.62 129.195 216.386 129.42C216.153 129.646 215.853 129.833 215.487 129.982C215.121 130.131 214.682 130.205 214.171 130.205ZM214.563 128.756C215.062 128.756 215.489 128.658 215.843 128.461C216.201 128.263 216.473 128.006 216.658 127.688C216.847 127.366 216.942 127.022 216.942 126.656V125.46C216.877 125.525 216.753 125.585 216.567 125.641C216.386 125.694 216.179 125.74 215.946 125.78C215.712 125.816 215.485 125.851 215.263 125.883C215.042 125.911 214.857 125.935 214.708 125.955C214.358 126 214.038 126.074 213.748 126.179C213.462 126.283 213.233 126.434 213.06 126.631C212.891 126.825 212.806 127.082 212.806 127.404C212.806 127.851 212.971 128.189 213.301 128.418C213.631 128.644 214.052 128.756 214.563 128.756ZM225.479 120.727V122.176H220.414V120.727H225.479ZM221.773 118.506H223.578V127.277C223.578 127.627 223.63 127.891 223.735 128.068C223.839 128.241 223.974 128.36 224.139 128.424C224.308 128.485 224.491 128.515 224.689 128.515C224.833 128.515 224.96 128.505 225.069 128.485C225.178 128.465 225.262 128.449 225.322 128.436L225.648 129.928C225.544 129.968 225.395 130.008 225.202 130.048C225.009 130.093 224.767 130.117 224.477 130.121C224.002 130.129 223.56 130.044 223.149 129.867C222.739 129.69 222.407 129.416 222.153 129.046C221.9 128.676 221.773 128.211 221.773 127.652V118.506ZM231.373 130.187C230.459 130.187 229.673 129.992 229.013 129.602C228.357 129.207 227.849 128.654 227.491 127.941C227.137 127.225 226.96 126.386 226.96 125.424C226.96 124.474 227.137 123.637 227.491 122.913C227.849 122.188 228.348 121.623 228.988 121.216C229.632 120.81 230.385 120.607 231.246 120.607C231.769 120.607 232.276 120.693 232.767 120.866C233.258 121.039 233.699 121.311 234.09 121.681C234.48 122.051 234.788 122.532 235.013 123.124C235.239 123.712 235.351 124.426 235.351 125.267V125.907H227.98V124.555H233.582C233.582 124.08 233.486 123.659 233.293 123.293C233.1 122.923 232.828 122.631 232.478 122.418C232.132 122.204 231.725 122.098 231.258 122.098C230.751 122.098 230.308 122.222 229.93 122.472C229.556 122.717 229.266 123.039 229.061 123.438C228.86 123.832 228.759 124.261 228.759 124.724V125.78C228.759 126.4 228.868 126.927 229.085 127.362C229.306 127.797 229.614 128.129 230.009 128.358C230.403 128.583 230.864 128.696 231.391 128.696C231.733 128.696 232.045 128.648 232.327 128.551C232.609 128.451 232.852 128.302 233.057 128.104C233.263 127.907 233.419 127.664 233.528 127.374L235.237 127.682C235.1 128.185 234.854 128.626 234.5 129.004C234.15 129.378 233.709 129.67 233.178 129.879C232.651 130.085 232.049 130.187 231.373 130.187ZM53.0782 156L50.3495 146.727H52.2149L54.032 153.537H54.1226L55.9458 146.727H57.8112L59.6222 153.507H59.7128L61.5178 146.727H63.3833L60.6606 156H58.8193L56.9358 149.305H56.797L54.9134 156H53.0782ZM65.0962 156V146.727H66.9013V156H65.0962ZM66.0078 145.297C65.6939 145.297 65.4242 145.192 65.1989 144.983C64.9775 144.769 64.8668 144.516 64.8668 144.222C64.8668 143.924 64.9775 143.671 65.1989 143.461C65.4242 143.248 65.6939 143.141 66.0078 143.141C66.3217 143.141 66.5894 143.248 66.8107 143.461C67.0361 143.671 67.1488 143.924 67.1488 144.222C67.1488 144.516 67.0361 144.769 66.8107 144.983C66.5894 145.192 66.3217 145.297 66.0078 145.297ZM73.6581 146.727V148.176H68.5931V146.727H73.6581ZM69.9514 144.506H71.7565V153.277C71.7565 153.627 71.8088 153.891 71.9134 154.068C72.0181 154.241 72.1529 154.36 72.3179 154.424C72.4869 154.485 72.6701 154.515 72.8673 154.515C73.0122 154.515 73.1389 154.505 73.2476 154.485C73.3563 154.465 73.4408 154.449 73.5012 154.436L73.8271 155.928C73.7225 155.968 73.5736 156.008 73.3804 156.048C73.1872 156.093 72.9458 156.117 72.656 156.121C72.1811 156.129 71.7384 156.044 71.3279 155.867C70.9173 155.69 70.5853 155.416 70.3318 155.046C70.0782 154.676 69.9514 154.211 69.9514 153.652V144.506ZM77.6591 150.494V156H75.854V143.636H77.6349V148.237H77.7496C77.967 147.737 78.299 147.341 78.7457 147.047C79.1925 146.753 79.776 146.607 80.4964 146.607C81.1323 146.607 81.6877 146.737 82.1626 146.999C82.6416 147.261 83.0118 147.651 83.2734 148.17C83.5391 148.685 83.6719 149.329 83.6719 150.102V156H81.8668V150.319C81.8668 149.639 81.6918 149.112 81.3416 148.738C80.9915 148.359 80.5045 148.17 79.8807 148.17C79.4541 148.17 79.0717 148.261 78.7337 148.442C78.3996 148.623 78.136 148.888 77.9428 149.239C77.7537 149.585 77.6591 150.003 77.6591 150.494ZM94.9081 146.727V148.176H89.8431V146.727H94.9081ZM91.2014 144.506H93.0065V153.277C93.0065 153.627 93.0588 153.891 93.1634 154.068C93.2681 154.241 93.4029 154.36 93.5679 154.424C93.7369 154.485 93.9201 154.515 94.1173 154.515C94.2622 154.515 94.3889 154.505 94.4976 154.485C94.6063 154.465 94.6908 154.449 94.7512 154.436L95.0771 155.928C94.9725 155.968 94.8236 156.008 94.6304 156.048C94.4372 156.093 94.1958 156.117 93.906 156.121C93.4311 156.129 92.9884 156.044 92.5779 155.867C92.1673 155.69 91.8353 155.416 91.5818 155.046C91.3282 154.676 91.2014 154.211 91.2014 153.652V144.506ZM98.9091 150.494V156H97.104V143.636H98.8849V148.237H98.9996C99.217 147.737 99.549 147.341 99.9957 147.047C100.442 146.753 101.026 146.607 101.746 146.607C102.382 146.607 102.938 146.737 103.413 146.999C103.892 147.261 104.262 147.651 104.523 148.17C104.789 148.685 104.922 149.329 104.922 150.102V156H103.117V150.319C103.117 149.639 102.942 149.112 102.592 148.738C102.241 148.359 101.754 148.17 101.131 148.17C100.704 148.17 100.322 148.261 99.9837 148.442C99.6496 148.623 99.386 148.888 99.1928 149.239C99.0037 149.585 98.9091 150.003 98.9091 150.494ZM111.327 156.187C110.413 156.187 109.627 155.992 108.967 155.602C108.311 155.207 107.804 154.654 107.445 153.941C107.091 153.225 106.914 152.386 106.914 151.424C106.914 150.474 107.091 149.637 107.445 148.913C107.804 148.188 108.303 147.623 108.942 147.216C109.586 146.81 110.339 146.607 111.2 146.607C111.723 146.607 112.231 146.693 112.722 146.866C113.213 147.039 113.653 147.311 114.044 147.681C114.434 148.051 114.742 148.532 114.967 149.124C115.193 149.712 115.305 150.426 115.305 151.267V151.907H107.934V150.555H113.537C113.537 150.08 113.44 149.659 113.247 149.293C113.054 148.923 112.782 148.631 112.432 148.418C112.086 148.204 111.679 148.098 111.212 148.098C110.705 148.098 110.263 148.222 109.884 148.472C109.51 148.717 109.22 149.039 109.015 149.438C108.814 149.832 108.713 150.261 108.713 150.724V151.78C108.713 152.4 108.822 152.927 109.039 153.362C109.26 153.797 109.568 154.129 109.963 154.358C110.357 154.583 110.818 154.696 111.345 154.696C111.687 154.696 111.999 154.648 112.281 154.551C112.563 154.451 112.806 154.302 113.011 154.104C113.217 153.907 113.374 153.664 113.482 153.374L115.191 153.682C115.054 154.185 114.808 154.626 114.454 155.004C114.104 155.378 113.663 155.67 113.132 155.879C112.605 156.085 112.003 156.187 111.327 156.187ZM117.308 156V146.727H119.113V156H117.308ZM118.22 145.297C117.906 145.297 117.636 145.192 117.411 144.983C117.189 144.769 117.079 144.516 117.079 144.222C117.079 143.924 117.189 143.671 117.411 143.461C117.636 143.248 117.906 143.141 118.22 143.141C118.534 143.141 118.801 143.248 119.023 143.461C119.248 143.671 119.361 143.924 119.361 144.222C119.361 144.516 119.248 144.769 119.023 144.983C118.801 145.192 118.534 145.297 118.22 145.297ZM121.542 156V146.727H123.286V148.2H123.383C123.552 147.701 123.85 147.309 124.276 147.023C124.707 146.733 125.194 146.588 125.737 146.588C125.85 146.588 125.983 146.592 126.136 146.6C126.293 146.609 126.415 146.619 126.504 146.631V148.357C126.431 148.337 126.303 148.315 126.118 148.291C125.932 148.263 125.747 148.249 125.562 148.249C125.136 148.249 124.755 148.339 124.421 148.52C124.091 148.697 123.83 148.945 123.636 149.263C123.443 149.577 123.347 149.935 123.347 150.337V156H121.542ZM136.471 156.187C135.573 156.187 134.801 155.984 134.153 155.577C133.509 155.167 133.014 154.601 132.668 153.881C132.321 153.161 132.148 152.336 132.148 151.406C132.148 150.464 132.326 149.633 132.68 148.913C133.034 148.188 133.533 147.623 134.177 147.216C134.821 146.81 135.579 146.607 136.453 146.607C137.157 146.607 137.785 146.737 138.336 146.999C138.888 147.257 139.332 147.619 139.67 148.086C140.013 148.552 140.216 149.098 140.28 149.722H138.523C138.427 149.287 138.205 148.913 137.859 148.599C137.517 148.285 137.058 148.128 136.483 148.128C135.98 148.128 135.539 148.261 135.161 148.526C134.787 148.788 134.495 149.162 134.286 149.649C134.076 150.132 133.972 150.704 133.972 151.364C133.972 152.04 134.074 152.623 134.279 153.114C134.485 153.605 134.775 153.986 135.149 154.255C135.527 154.525 135.972 154.66 136.483 154.66C136.825 154.66 137.135 154.597 137.413 154.473C137.694 154.344 137.93 154.161 138.119 153.923C138.312 153.686 138.447 153.4 138.523 153.066H140.28C140.216 153.666 140.021 154.201 139.695 154.672C139.369 155.143 138.932 155.513 138.385 155.783C137.841 156.052 137.203 156.187 136.471 156.187ZM148.084 152.154V146.727H149.896V156H148.121V154.394H148.024C147.811 154.889 147.469 155.302 146.998 155.632C146.531 155.958 145.949 156.121 145.253 156.121C144.657 156.121 144.13 155.99 143.671 155.728C143.217 155.463 142.858 155.07 142.597 154.551C142.339 154.032 142.21 153.39 142.21 152.625V146.727H144.016V152.408C144.016 153.04 144.191 153.543 144.541 153.917C144.891 154.292 145.346 154.479 145.905 154.479C146.243 154.479 146.579 154.394 146.913 154.225C147.251 154.056 147.531 153.801 147.752 153.458C147.978 153.116 148.088 152.682 148.084 152.154ZM159.269 148.991L157.633 149.281C157.565 149.072 157.456 148.872 157.307 148.683C157.162 148.494 156.965 148.339 156.716 148.218C156.466 148.098 156.154 148.037 155.78 148.037C155.269 148.037 154.842 148.152 154.5 148.381C154.158 148.607 153.987 148.899 153.987 149.257C153.987 149.567 154.102 149.816 154.331 150.005C154.561 150.194 154.931 150.349 155.442 150.47L156.915 150.808C157.768 151.005 158.404 151.309 158.823 151.72C159.241 152.13 159.45 152.664 159.45 153.32C159.45 153.875 159.289 154.37 158.968 154.805C158.65 155.235 158.205 155.573 157.633 155.819C157.066 156.064 156.408 156.187 155.659 156.187C154.621 156.187 153.774 155.966 153.118 155.523C152.462 155.076 152.059 154.442 151.91 153.621L153.655 153.356C153.764 153.811 153.987 154.155 154.325 154.388C154.663 154.618 155.104 154.732 155.647 154.732C156.239 154.732 156.712 154.609 157.066 154.364C157.42 154.114 157.597 153.811 157.597 153.452C157.597 153.163 157.488 152.919 157.271 152.722C157.058 152.525 156.73 152.376 156.287 152.275L154.718 151.931C153.852 151.734 153.212 151.42 152.798 150.989C152.387 150.559 152.182 150.013 152.182 149.353C152.182 148.806 152.335 148.327 152.641 147.917C152.947 147.506 153.369 147.186 153.909 146.957C154.448 146.723 155.066 146.607 155.762 146.607C156.764 146.607 157.553 146.824 158.128 147.259C158.704 147.689 159.084 148.267 159.269 148.991ZM165.764 146.727V148.176H160.699V146.727H165.764ZM162.057 144.506H163.862V153.277C163.862 153.627 163.914 153.891 164.019 154.068C164.124 154.241 164.258 154.36 164.423 154.424C164.592 154.485 164.776 154.515 164.973 154.515C165.118 154.515 165.244 154.505 165.353 154.485C165.462 154.465 165.546 154.449 165.607 154.436L165.933 155.928C165.828 155.968 165.679 156.008 165.486 156.048C165.293 156.093 165.051 156.117 164.761 156.121C164.287 156.129 163.844 156.044 163.433 155.867C163.023 155.69 162.691 155.416 162.437 155.046C162.184 154.676 162.057 154.211 162.057 153.652V144.506ZM171.567 156.187C170.697 156.187 169.939 155.988 169.291 155.589C168.643 155.191 168.14 154.634 167.781 153.917C167.423 153.201 167.244 152.364 167.244 151.406C167.244 150.444 167.423 149.603 167.781 148.882C168.14 148.162 168.643 147.603 169.291 147.204C169.939 146.806 170.697 146.607 171.567 146.607C172.436 146.607 173.195 146.806 173.843 147.204C174.49 147.603 174.994 148.162 175.352 148.882C175.71 149.603 175.889 150.444 175.889 151.406C175.889 152.364 175.71 153.201 175.352 153.917C174.994 154.634 174.49 155.191 173.843 155.589C173.195 155.988 172.436 156.187 171.567 156.187ZM171.573 154.672C172.136 154.672 172.603 154.523 172.973 154.225C173.343 153.927 173.617 153.531 173.794 153.036C173.975 152.541 174.066 151.996 174.066 151.4C174.066 150.808 173.975 150.265 173.794 149.77C173.617 149.271 173.343 148.87 172.973 148.569C172.603 148.267 172.136 148.116 171.573 148.116C171.005 148.116 170.534 148.267 170.16 148.569C169.79 148.87 169.514 149.271 169.333 149.77C169.156 150.265 169.067 150.808 169.067 151.4C169.067 151.996 169.156 152.541 169.333 153.036C169.514 153.531 169.79 153.927 170.16 154.225C170.534 154.523 171.005 154.672 171.573 154.672ZM177.904 156V146.727H179.636V148.237H179.751C179.944 147.725 180.26 147.327 180.699 147.041C181.138 146.751 181.663 146.607 182.275 146.607C182.894 146.607 183.414 146.751 183.832 147.041C184.255 147.331 184.567 147.729 184.768 148.237H184.864C185.086 147.741 185.438 147.347 185.921 147.053C186.404 146.755 186.979 146.607 187.647 146.607C188.489 146.607 189.175 146.87 189.706 147.397C190.241 147.925 190.509 148.719 190.509 149.782V156H188.704V149.951C188.704 149.323 188.533 148.868 188.191 148.587C187.849 148.305 187.44 148.164 186.965 148.164C186.378 148.164 185.921 148.345 185.595 148.707C185.269 149.066 185.106 149.526 185.106 150.09V156H183.307V149.836C183.307 149.333 183.15 148.929 182.836 148.623C182.522 148.317 182.114 148.164 181.611 148.164C181.268 148.164 180.953 148.255 180.663 148.436C180.377 148.613 180.146 148.86 179.968 149.178C179.795 149.496 179.709 149.864 179.709 150.283V156H177.904ZM196.925 156.187C196.011 156.187 195.224 155.992 194.564 155.602C193.908 155.207 193.401 154.654 193.043 153.941C192.689 153.225 192.512 152.386 192.512 151.424C192.512 150.474 192.689 149.637 193.043 148.913C193.401 148.188 193.9 147.623 194.54 147.216C195.184 146.81 195.937 146.607 196.798 146.607C197.321 146.607 197.828 146.693 198.319 146.866C198.81 147.039 199.251 147.311 199.641 147.681C200.032 148.051 200.34 148.532 200.565 149.124C200.79 149.712 200.903 150.426 200.903 151.267V151.907H193.532V150.555H199.134C199.134 150.08 199.038 149.659 198.844 149.293C198.651 148.923 198.38 148.631 198.029 148.418C197.683 148.204 197.277 148.098 196.81 148.098C196.303 148.098 195.86 148.222 195.482 148.472C195.108 148.717 194.818 149.039 194.613 149.438C194.411 149.832 194.311 150.261 194.311 150.724V151.78C194.311 152.4 194.419 152.927 194.637 153.362C194.858 153.797 195.166 154.129 195.56 154.358C195.955 154.583 196.416 154.696 196.943 154.696C197.285 154.696 197.597 154.648 197.879 154.551C198.16 154.451 198.404 154.302 198.609 154.104C198.814 153.907 198.971 153.664 199.08 153.374L200.788 153.682C200.652 154.185 200.406 154.626 200.052 155.004C199.702 155.378 199.261 155.67 198.73 155.879C198.203 156.085 197.601 156.187 196.925 156.187ZM202.906 156V146.727H204.65V148.2H204.747C204.916 147.701 205.214 147.309 205.641 147.023C206.071 146.733 206.558 146.588 207.101 146.588C207.214 146.588 207.347 146.592 207.5 146.6C207.657 146.609 207.78 146.619 207.868 146.631V148.357C207.796 148.337 207.667 148.315 207.482 148.291C207.297 148.263 207.112 148.249 206.926 148.249C206.5 148.249 206.119 148.339 205.785 148.52C205.455 148.697 205.194 148.945 205.001 149.263C204.807 149.577 204.711 149.935 204.711 150.337V156H202.906ZM216.379 148.991L214.743 149.281C214.674 149.072 214.566 148.872 214.417 148.683C214.272 148.494 214.075 148.339 213.825 148.218C213.576 148.098 213.264 148.037 212.889 148.037C212.378 148.037 211.952 148.152 211.61 148.381C211.267 148.607 211.096 148.899 211.096 149.257C211.096 149.567 211.211 149.816 211.441 150.005C211.67 150.194 212.04 150.349 212.551 150.47L214.024 150.808C214.878 151.005 215.513 151.309 215.932 151.72C216.351 152.13 216.56 152.664 216.56 153.32C216.56 153.875 216.399 154.37 216.077 154.805C215.759 155.235 215.314 155.573 214.743 155.819C214.175 156.064 213.517 156.187 212.769 156.187C211.73 156.187 210.883 155.966 210.227 155.523C209.571 155.076 209.169 154.442 209.02 153.621L210.764 153.356C210.873 153.811 211.096 154.155 211.434 154.388C211.773 154.618 212.213 154.732 212.757 154.732C213.348 154.732 213.821 154.609 214.175 154.364C214.529 154.114 214.706 153.811 214.706 153.452C214.706 153.163 214.598 152.919 214.381 152.722C214.167 152.525 213.839 152.376 213.396 152.275L211.827 151.931C210.962 151.734 210.322 151.42 209.907 150.989C209.497 150.559 209.291 150.013 209.291 149.353C209.291 148.806 209.444 148.327 209.75 147.917C210.056 147.506 210.479 147.186 211.018 146.957C211.557 146.723 212.175 146.607 212.871 146.607C213.873 146.607 214.662 146.824 215.238 147.259C215.813 147.689 216.194 148.267 216.379 148.991ZM219.734 156.115C219.404 156.115 219.12 155.998 218.883 155.765C218.645 155.527 218.526 155.241 218.526 154.907C218.526 154.577 218.645 154.296 218.883 154.062C219.12 153.825 219.404 153.706 219.734 153.706C220.064 153.706 220.348 153.825 220.585 154.062C220.822 154.296 220.941 154.577 220.941 154.907C220.941 155.129 220.885 155.332 220.772 155.517C220.663 155.698 220.519 155.843 220.337 155.952C220.156 156.06 219.955 156.115 219.734 156.115Z" fill="#353945"/>
<path d="M90.4588 207.5V198.773H91.7756V206.366H95.7301V207.5H90.4588ZM99.951 207.632C99.3061 207.632 98.7507 207.494 98.2848 207.219C97.8217 206.94 97.4638 206.55 97.2109 206.047C96.9609 205.541 96.8359 204.949 96.8359 204.27C96.8359 203.599 96.9609 203.009 97.2109 202.497C97.4638 201.986 97.8161 201.587 98.2678 201.3C98.7223 201.013 99.2536 200.869 99.8615 200.869C100.231 200.869 100.589 200.93 100.935 201.053C101.282 201.175 101.593 201.366 101.869 201.628C102.144 201.889 102.362 202.229 102.521 202.646C102.68 203.061 102.759 203.565 102.759 204.159V204.611H97.5561V203.656H101.511C101.511 203.321 101.442 203.024 101.306 202.766C101.17 202.504 100.978 202.298 100.731 202.148C100.487 201.997 100.2 201.922 99.87 201.922C99.5121 201.922 99.1996 202.01 98.9325 202.186C98.6683 202.359 98.4638 202.587 98.3189 202.868C98.1768 203.146 98.1058 203.449 98.1058 203.776V204.521C98.1058 204.959 98.1825 205.331 98.3359 205.638C98.4922 205.945 98.7095 206.179 98.9879 206.341C99.2663 206.5 99.5916 206.58 99.9638 206.58C100.205 206.58 100.425 206.545 100.624 206.477C100.823 206.406 100.995 206.301 101.14 206.162C101.285 206.023 101.396 205.851 101.472 205.646L102.678 205.864C102.582 206.219 102.408 206.53 102.158 206.797C101.911 207.061 101.6 207.267 101.225 207.415C100.853 207.56 100.428 207.632 99.951 207.632ZM106.078 207.645C105.663 207.645 105.288 207.568 104.953 207.415C104.618 207.259 104.352 207.033 104.156 206.737C103.963 206.442 103.866 206.08 103.866 205.651C103.866 205.281 103.937 204.977 104.079 204.739C104.221 204.5 104.413 204.311 104.654 204.172C104.896 204.033 105.166 203.928 105.464 203.857C105.762 203.786 106.066 203.732 106.376 203.695C106.768 203.649 107.086 203.612 107.331 203.584C107.575 203.553 107.752 203.503 107.863 203.435C107.974 203.366 108.029 203.256 108.029 203.102V203.072C108.029 202.7 107.924 202.412 107.714 202.207C107.507 202.003 107.197 201.901 106.785 201.901C106.356 201.901 106.018 201.996 105.771 202.186C105.527 202.374 105.358 202.582 105.264 202.812L104.066 202.54C104.208 202.142 104.416 201.821 104.689 201.577C104.964 201.33 105.281 201.151 105.639 201.04C105.997 200.926 106.373 200.869 106.768 200.869C107.029 200.869 107.306 200.901 107.599 200.963C107.895 201.023 108.17 201.134 108.426 201.295C108.684 201.457 108.896 201.689 109.061 201.99C109.225 202.288 109.308 202.676 109.308 203.153V207.5H108.064V206.605H108.012C107.93 206.77 107.806 206.932 107.642 207.091C107.477 207.25 107.265 207.382 107.007 207.487C106.748 207.592 106.439 207.645 106.078 207.645ZM106.355 206.622C106.707 206.622 107.008 206.553 107.258 206.413C107.511 206.274 107.703 206.092 107.833 205.868C107.967 205.641 108.034 205.398 108.034 205.139V204.295C107.988 204.341 107.9 204.384 107.77 204.423C107.642 204.46 107.495 204.493 107.331 204.521C107.166 204.547 107.005 204.571 106.849 204.594C106.693 204.614 106.562 204.631 106.457 204.645C106.21 204.676 105.984 204.729 105.779 204.803C105.578 204.876 105.416 204.983 105.294 205.122C105.174 205.259 105.115 205.44 105.115 205.668C105.115 205.983 105.231 206.222 105.464 206.384C105.697 206.543 105.994 206.622 106.355 206.622ZM111.005 207.5V200.955H112.237V201.994H112.305C112.424 201.642 112.634 201.365 112.935 201.163C113.239 200.959 113.583 200.857 113.967 200.857C114.046 200.857 114.14 200.859 114.248 200.865C114.359 200.871 114.445 200.878 114.508 200.886V202.105C114.457 202.091 114.366 202.075 114.235 202.058C114.104 202.038 113.974 202.028 113.843 202.028C113.542 202.028 113.273 202.092 113.038 202.22C112.805 202.345 112.62 202.52 112.484 202.744C112.347 202.966 112.279 203.219 112.279 203.503V207.5H111.005ZM116.885 203.614V207.5H115.61V200.955H116.833V202.02H116.914C117.065 201.673 117.301 201.395 117.622 201.185C117.946 200.974 118.353 200.869 118.845 200.869C119.291 200.869 119.681 200.963 120.017 201.151C120.352 201.335 120.612 201.611 120.797 201.977C120.981 202.344 121.074 202.797 121.074 203.337V207.5H119.799V203.49C119.799 203.016 119.676 202.645 119.429 202.378C119.181 202.108 118.842 201.973 118.41 201.973C118.115 201.973 117.852 202.037 117.622 202.165C117.395 202.293 117.214 202.48 117.081 202.727C116.95 202.972 116.885 203.267 116.885 203.614ZM126.06 198.773H127.658L130.437 205.557H130.539L133.317 198.773H134.915V207.5H133.663V201.185H133.582L131.008 207.487H129.968L127.394 201.18H127.313V207.5H126.06V198.773ZM139.485 207.632C138.871 207.632 138.336 207.491 137.878 207.21C137.421 206.929 137.066 206.536 136.813 206.03C136.56 205.524 136.434 204.933 136.434 204.257C136.434 203.578 136.56 202.984 136.813 202.476C137.066 201.967 137.421 201.572 137.878 201.291C138.336 201.01 138.871 200.869 139.485 200.869C140.098 200.869 140.634 201.01 141.091 201.291C141.549 201.572 141.904 201.967 142.157 202.476C142.409 202.984 142.536 203.578 142.536 204.257C142.536 204.933 142.409 205.524 142.157 206.03C141.904 206.536 141.549 206.929 141.091 207.21C140.634 207.491 140.098 207.632 139.485 207.632ZM139.489 206.562C139.887 206.562 140.216 206.457 140.478 206.247C140.739 206.037 140.932 205.757 141.057 205.408C141.185 205.058 141.249 204.673 141.249 204.253C141.249 203.835 141.185 203.452 141.057 203.102C140.932 202.75 140.739 202.467 140.478 202.254C140.216 202.041 139.887 201.935 139.489 201.935C139.088 201.935 138.756 202.041 138.492 202.254C138.23 202.467 138.036 202.75 137.908 203.102C137.783 203.452 137.721 203.835 137.721 204.253C137.721 204.673 137.783 205.058 137.908 205.408C138.036 205.757 138.23 206.037 138.492 206.247C138.756 206.457 139.088 206.562 139.489 206.562ZM143.958 207.5V200.955H145.19V201.994H145.258C145.377 201.642 145.587 201.365 145.888 201.163C146.192 200.959 146.536 200.857 146.92 200.857C146.999 200.857 147.093 200.859 147.201 200.865C147.312 200.871 147.398 200.878 147.461 200.886V202.105C147.41 202.091 147.319 202.075 147.188 202.058C147.058 202.038 146.927 202.028 146.796 202.028C146.495 202.028 146.227 202.092 145.991 202.22C145.758 202.345 145.573 202.52 145.437 202.744C145.3 202.966 145.232 203.219 145.232 203.503V207.5H143.958ZM151.15 207.632C150.505 207.632 149.95 207.494 149.484 207.219C149.021 206.94 148.663 206.55 148.41 206.047C148.16 205.541 148.035 204.949 148.035 204.27C148.035 203.599 148.16 203.009 148.41 202.497C148.663 201.986 149.015 201.587 149.467 201.3C149.922 201.013 150.453 200.869 151.061 200.869C151.43 200.869 151.788 200.93 152.135 201.053C152.481 201.175 152.792 201.366 153.068 201.628C153.343 201.889 153.561 202.229 153.72 202.646C153.879 203.061 153.958 203.565 153.958 204.159V204.611H148.755V203.656H152.71C152.71 203.321 152.642 203.024 152.505 202.766C152.369 202.504 152.177 202.298 151.93 202.148C151.686 201.997 151.399 201.922 151.069 201.922C150.711 201.922 150.399 202.01 150.132 202.186C149.868 202.359 149.663 202.587 149.518 202.868C149.376 203.146 149.305 203.449 149.305 203.776V204.521C149.305 204.959 149.382 205.331 149.535 205.638C149.691 205.945 149.909 206.179 150.187 206.341C150.466 206.5 150.791 206.58 151.163 206.58C151.404 206.58 151.625 206.545 151.824 206.477C152.022 206.406 152.194 206.301 152.339 206.162C152.484 206.023 152.595 205.851 152.672 205.646L153.877 205.864C153.781 206.219 153.608 206.53 153.358 206.797C153.11 207.061 152.799 207.267 152.424 207.415C152.052 207.56 151.627 207.632 151.15 207.632Z" fill="#353945"/>
<path fill-rule="evenodd" clip-rule="evenodd" d="M172.591 198.265C172.997 197.891 173.629 197.916 174.004 198.322L177.235 201.822C177.588 202.205 177.588 202.795 177.235 203.178L174.004 206.678C173.629 207.084 172.997 207.109 172.591 206.735C172.185 206.36 172.16 205.728 172.534 205.322L174.216 203.5L164.5 203.5C163.948 203.5 163.5 203.052 163.5 202.5C163.5 201.948 163.948 201.5 164.5 201.5L174.216 201.5L172.534 199.678C172.16 199.272 172.185 198.64 172.591 198.265Z" fill="#353945"/>
</svg>
