<svg width="203" height="24" viewBox="0 0 203 24" fill="none" xmlns="http://www.w3.org/2000/svg">
<circle cx="10" cy="12" r="7.5" stroke="white" stroke-width="5"/>
<path d="M41.3239 9.71023C41.2784 9.25189 41.0833 8.89583 40.7386 8.64205C40.3939 8.38826 39.9261 8.26136 39.3352 8.26136C38.9337 8.26136 38.5947 8.31818 38.3182 8.43182C38.0417 8.54167 37.8295 8.69508 37.6818 8.89205C37.5379 9.08902 37.4659 9.3125 37.4659 9.5625C37.4583 9.77083 37.5019 9.95265 37.5966 10.108C37.6951 10.2633 37.8295 10.3977 38 10.5114C38.1705 10.6212 38.3674 10.7178 38.5909 10.8011C38.8144 10.8807 39.053 10.9489 39.3068 11.0057L40.3523 11.2557C40.8598 11.3693 41.3258 11.5208 41.75 11.7102C42.1742 11.8996 42.5417 12.1326 42.8523 12.4091C43.1629 12.6856 43.4034 13.0114 43.5739 13.3864C43.7481 13.7614 43.8371 14.1913 43.8409 14.6761C43.8371 15.3883 43.6553 16.0057 43.2955 16.5284C42.9394 17.0473 42.4242 17.4508 41.75 17.7386C41.0795 18.0227 40.2708 18.1648 39.3239 18.1648C38.3845 18.1648 37.5663 18.0208 36.8693 17.733C36.1761 17.4451 35.6345 17.0189 35.2443 16.4545C34.858 15.8864 34.6553 15.1837 34.6364 14.3466H37.017C37.0436 14.7367 37.1553 15.0625 37.3523 15.3239C37.553 15.5814 37.8201 15.7765 38.1534 15.9091C38.4905 16.0379 38.8712 16.1023 39.2955 16.1023C39.7121 16.1023 40.0739 16.0417 40.3807 15.9205C40.6913 15.7992 40.9318 15.6307 41.1023 15.4148C41.2727 15.1989 41.358 14.9508 41.358 14.6705C41.358 14.4091 41.2803 14.1894 41.125 14.0114C40.9735 13.8333 40.75 13.6818 40.4545 13.5568C40.1629 13.4318 39.8049 13.3182 39.3807 13.2159L38.1136 12.8977C37.1326 12.6591 36.358 12.286 35.7898 11.7784C35.2216 11.2708 34.9394 10.5871 34.9432 9.72727C34.9394 9.02273 35.1269 8.4072 35.5057 7.88068C35.8883 7.35417 36.4129 6.94318 37.0795 6.64773C37.7462 6.35227 38.5038 6.20455 39.3523 6.20455C40.2159 6.20455 40.9697 6.35227 41.6136 6.64773C42.2614 6.94318 42.7652 7.35417 43.125 7.88068C43.4848 8.4072 43.6705 9.01705 43.6818 9.71023H41.3239ZM49.4276 18.1705C48.5298 18.1705 47.7571 17.9886 47.1094 17.625C46.4654 17.2576 45.9692 16.7386 45.6207 16.0682C45.2723 15.3939 45.098 14.5966 45.098 13.6761C45.098 12.7784 45.2723 11.9905 45.6207 11.3125C45.9692 10.6345 46.4598 10.1061 47.0923 9.72727C47.7287 9.34848 48.4749 9.15909 49.331 9.15909C49.9067 9.15909 50.4427 9.25189 50.9389 9.4375C51.4389 9.61932 51.8745 9.89394 52.2457 10.2614C52.6207 10.6288 52.9124 11.0909 53.1207 11.6477C53.3291 12.2008 53.4332 12.8485 53.4332 13.5909V14.2557H46.0639V12.7557H51.1548C51.1548 12.4072 51.0791 12.0985 50.9276 11.8295C50.776 11.5606 50.5658 11.3504 50.2969 11.1989C50.0317 11.0436 49.723 10.9659 49.3707 10.9659C49.0033 10.9659 48.6776 11.0511 48.3935 11.2216C48.1132 11.3883 47.8935 11.6136 47.7344 11.8977C47.5753 12.178 47.4938 12.4905 47.4901 12.8352V14.2614C47.4901 14.6932 47.5696 15.0663 47.7287 15.3807C47.8916 15.6951 48.1207 15.9375 48.4162 16.108C48.7116 16.2784 49.062 16.3636 49.4673 16.3636C49.7363 16.3636 49.9825 16.3258 50.206 16.25C50.4295 16.1742 50.6207 16.0606 50.7798 15.9091C50.9389 15.7576 51.0601 15.572 51.1435 15.3523L53.3821 15.5C53.2685 16.0379 53.0355 16.5076 52.6832 16.9091C52.3348 17.3068 51.884 17.6174 51.331 17.8409C50.7817 18.0606 50.1473 18.1705 49.4276 18.1705ZM59.6548 9.27273V11.0909H54.3991V9.27273H59.6548ZM55.5923 7.18182H58.0128V15.3182C58.0128 15.5417 58.0469 15.7159 58.1151 15.8409C58.1832 15.9621 58.2779 16.0473 58.3991 16.0966C58.5241 16.1458 58.6681 16.1705 58.831 16.1705C58.9446 16.1705 59.0582 16.161 59.1719 16.142C59.2855 16.1193 59.3726 16.1023 59.4332 16.0909L59.8139 17.892C59.6927 17.9299 59.5223 17.9735 59.3026 18.0227C59.0829 18.0758 58.8158 18.108 58.5014 18.1193C57.9181 18.142 57.4067 18.0644 56.9673 17.8864C56.5317 17.7083 56.1927 17.4318 55.9503 17.0568C55.7079 16.6818 55.5885 16.2083 55.5923 15.6364V7.18182ZM72.1676 6.36364H74.6278V13.9205C74.6278 14.7689 74.4252 15.5114 74.0199 16.1477C73.6184 16.7841 73.0559 17.2803 72.3324 17.6364C71.6089 17.9886 70.7661 18.1648 69.804 18.1648C68.8381 18.1648 67.9934 17.9886 67.2699 17.6364C66.5464 17.2803 65.9839 16.7841 65.5824 16.1477C65.1809 15.5114 64.9801 14.7689 64.9801 13.9205V6.36364H67.4403V13.7102C67.4403 14.1534 67.5369 14.5473 67.7301 14.892C67.9271 15.2367 68.2036 15.5076 68.5597 15.7045C68.9157 15.9015 69.3305 16 69.804 16C70.2813 16 70.696 15.9015 71.0483 15.7045C71.4044 15.5076 71.679 15.2367 71.8722 14.892C72.0691 14.5473 72.1676 14.1534 72.1676 13.7102V6.36364ZM76.6065 21.2727V9.27273H78.9929V10.7386H79.1009C79.2069 10.5038 79.3603 10.2652 79.5611 10.0227C79.7656 9.77652 80.0308 9.57197 80.3565 9.40909C80.6861 9.24242 81.0952 9.15909 81.5838 9.15909C82.2202 9.15909 82.8073 9.32576 83.3452 9.65909C83.883 9.98864 84.313 10.4867 84.6349 11.1534C84.9569 11.8163 85.1179 12.6477 85.1179 13.6477C85.1179 14.6212 84.9607 15.4432 84.6463 16.1136C84.3357 16.7803 83.9115 17.286 83.3736 17.6307C82.8395 17.9716 82.241 18.142 81.5781 18.142C81.1084 18.142 80.7088 18.0644 80.3793 17.9091C80.0535 17.7538 79.7865 17.5587 79.5781 17.3239C79.3698 17.0852 79.2107 16.8447 79.1009 16.6023H79.027V21.2727H76.6065ZM78.9759 13.6364C78.9759 14.1553 79.0478 14.608 79.1918 14.9943C79.3357 15.3807 79.544 15.6818 79.8168 15.8977C80.0895 16.1098 80.4209 16.2159 80.8111 16.2159C81.205 16.2159 81.5384 16.108 81.8111 15.892C82.0838 15.6723 82.2902 15.3693 82.4304 14.983C82.5743 14.5928 82.6463 14.1439 82.6463 13.6364C82.6463 13.1326 82.5762 12.6894 82.4361 12.3068C82.2959 11.9242 82.0895 11.625 81.8168 11.4091C81.544 11.1932 81.2088 11.0852 80.8111 11.0852C80.4171 11.0852 80.0838 11.1894 79.8111 11.3977C79.5421 11.6061 79.3357 11.9015 79.1918 12.2841C79.0478 12.6667 78.9759 13.1174 78.9759 13.6364ZM91.929 21.2727C91.6222 21.2727 91.3343 21.2481 91.0653 21.1989C90.8002 21.1534 90.5805 21.0947 90.4062 21.0227L90.9517 19.2159C91.2358 19.303 91.4915 19.3504 91.7188 19.358C91.9498 19.3655 92.1487 19.3125 92.3153 19.1989C92.4858 19.0852 92.6241 18.892 92.7301 18.6193L92.8722 18.25L89.7415 9.27273H92.2869L94.0938 15.6818H94.1847L96.0085 9.27273H98.571L95.179 18.9432C95.0161 19.4129 94.7945 19.822 94.5142 20.1705C94.2377 20.5227 93.8873 20.7936 93.4631 20.983C93.0388 21.1761 92.5275 21.2727 91.929 21.2727ZM103.472 18.1705C102.589 18.1705 101.826 17.983 101.182 17.608C100.542 17.2292 100.047 16.7027 99.6989 16.0284C99.3504 15.3504 99.1761 14.5644 99.1761 13.6705C99.1761 12.7689 99.3504 11.9811 99.6989 11.3068C100.047 10.6288 100.542 10.1023 101.182 9.72727C101.826 9.34848 102.589 9.15909 103.472 9.15909C104.354 9.15909 105.116 9.34848 105.756 9.72727C106.4 10.1023 106.896 10.6288 107.244 11.3068C107.593 11.9811 107.767 12.7689 107.767 13.6705C107.767 14.5644 107.593 15.3504 107.244 16.0284C106.896 16.7027 106.4 17.2292 105.756 17.608C105.116 17.983 104.354 18.1705 103.472 18.1705ZM103.483 16.2955C103.884 16.2955 104.22 16.1818 104.489 15.9545C104.758 15.7235 104.96 15.4091 105.097 15.0114C105.237 14.6136 105.307 14.161 105.307 13.6534C105.307 13.1458 105.237 12.6932 105.097 12.2955C104.96 11.8977 104.758 11.5833 104.489 11.3523C104.22 11.1212 103.884 11.0057 103.483 11.0057C103.078 11.0057 102.737 11.1212 102.46 11.3523C102.188 11.5833 101.981 11.8977 101.841 12.2955C101.705 12.6932 101.636 13.1458 101.636 13.6534C101.636 14.161 101.705 14.6136 101.841 15.0114C101.981 15.4091 102.188 15.7235 102.46 15.9545C102.737 16.1818 103.078 16.2955 103.483 16.2955ZM114.938 14.2841V9.27273H117.358V18H115.034V16.4148H114.943C114.746 16.9261 114.419 17.3371 113.96 17.6477C113.506 17.9583 112.951 18.1136 112.295 18.1136C111.712 18.1136 111.199 17.9811 110.756 17.7159C110.313 17.4508 109.966 17.0739 109.716 16.5852C109.47 16.0966 109.345 15.5114 109.341 14.8295V9.27273H111.761V14.3977C111.765 14.9129 111.903 15.3201 112.176 15.6193C112.449 15.9186 112.814 16.0682 113.273 16.0682C113.564 16.0682 113.837 16.0019 114.091 15.8693C114.345 15.733 114.549 15.5322 114.705 15.267C114.864 15.0019 114.941 14.6742 114.938 14.2841ZM119.294 18V9.27273H121.641V10.7955H121.732C121.891 10.2538 122.158 9.8447 122.533 9.56818C122.908 9.28788 123.339 9.14773 123.828 9.14773C123.949 9.14773 124.08 9.1553 124.22 9.17045C124.36 9.18561 124.483 9.20644 124.589 9.23295V11.3807C124.476 11.3466 124.319 11.3163 124.118 11.2898C123.917 11.2633 123.733 11.25 123.567 11.25C123.211 11.25 122.893 11.3277 122.612 11.483C122.336 11.6345 122.116 11.8466 121.953 12.1193C121.794 12.392 121.714 12.7064 121.714 13.0625V18H119.294ZM131.595 18H128.959L132.976 6.36364H136.146L140.158 18H137.521L134.607 9.02273H134.516L131.595 18ZM131.43 13.4261H137.658V15.3466H131.43V13.4261ZM145.05 18.1705C144.156 18.1705 143.387 17.9811 142.743 17.6023C142.103 17.2197 141.61 16.6894 141.266 16.0114C140.925 15.3333 140.754 14.553 140.754 13.6705C140.754 12.7765 140.927 11.9924 141.271 11.3182C141.62 10.6402 142.114 10.1117 142.754 9.73295C143.394 9.35038 144.156 9.15909 145.038 9.15909C145.8 9.15909 146.466 9.29735 147.038 9.57386C147.61 9.85038 148.063 10.2386 148.396 10.7386C148.73 11.2386 148.913 11.8258 148.947 12.5H146.663C146.599 12.0644 146.429 11.714 146.152 11.4489C145.879 11.1799 145.521 11.0455 145.078 11.0455C144.703 11.0455 144.375 11.1477 144.095 11.3523C143.819 11.553 143.603 11.8466 143.447 12.233C143.292 12.6193 143.214 13.0871 143.214 13.6364C143.214 14.1932 143.29 14.6667 143.442 15.0568C143.597 15.447 143.815 15.7443 144.095 15.9489C144.375 16.1534 144.703 16.2557 145.078 16.2557C145.355 16.2557 145.603 16.1989 145.822 16.0852C146.046 15.9716 146.23 15.8068 146.374 15.5909C146.521 15.3712 146.618 15.108 146.663 14.8011H148.947C148.91 15.4678 148.728 16.0549 148.402 16.5625C148.08 17.0663 147.635 17.4602 147.067 17.7443C146.499 18.0284 145.826 18.1705 145.05 18.1705ZM154.44 18.1705C153.546 18.1705 152.777 17.9811 152.134 17.6023C151.493 17.2197 151.001 16.6894 150.656 16.0114C150.315 15.3333 150.145 14.553 150.145 13.6705C150.145 12.7765 150.317 11.9924 150.662 11.3182C151.01 10.6402 151.505 10.1117 152.145 9.73295C152.785 9.35038 153.546 9.15909 154.429 9.15909C155.19 9.15909 155.857 9.29735 156.429 9.57386C157.001 9.85038 157.454 10.2386 157.787 10.7386C158.12 11.2386 158.304 11.8258 158.338 12.5H156.054C155.99 12.0644 155.819 11.714 155.543 11.4489C155.27 11.1799 154.912 11.0455 154.469 11.0455C154.094 11.0455 153.766 11.1477 153.486 11.3523C153.209 11.553 152.993 11.8466 152.838 12.233C152.683 12.6193 152.605 13.0871 152.605 13.6364C152.605 14.1932 152.681 14.6667 152.832 15.0568C152.988 15.447 153.205 15.7443 153.486 15.9489C153.766 16.1534 154.094 16.2557 154.469 16.2557C154.745 16.2557 154.993 16.1989 155.213 16.0852C155.437 15.9716 155.62 15.8068 155.764 15.5909C155.912 15.3712 156.009 15.108 156.054 14.8011H158.338C158.3 15.4678 158.118 16.0549 157.793 16.5625C157.471 17.0663 157.026 17.4602 156.457 17.7443C155.889 18.0284 155.217 18.1705 154.44 18.1705ZM163.831 18.1705C162.948 18.1705 162.185 17.983 161.541 17.608C160.901 17.2292 160.407 16.7027 160.058 16.0284C159.71 15.3504 159.536 14.5644 159.536 13.6705C159.536 12.7689 159.71 11.9811 160.058 11.3068C160.407 10.6288 160.901 10.1023 161.541 9.72727C162.185 9.34848 162.948 9.15909 163.831 9.15909C164.714 9.15909 165.475 9.34848 166.115 9.72727C166.759 10.1023 167.255 10.6288 167.604 11.3068C167.952 11.9811 168.126 12.7689 168.126 13.6705C168.126 14.5644 167.952 15.3504 167.604 16.0284C167.255 16.7027 166.759 17.2292 166.115 17.608C165.475 17.983 164.714 18.1705 163.831 18.1705ZM163.842 16.2955C164.244 16.2955 164.579 16.1818 164.848 15.9545C165.117 15.7235 165.32 15.4091 165.456 15.0114C165.596 14.6136 165.666 14.161 165.666 13.6534C165.666 13.1458 165.596 12.6932 165.456 12.2955C165.32 11.8977 165.117 11.5833 164.848 11.3523C164.579 11.1212 164.244 11.0057 163.842 11.0057C163.437 11.0057 163.096 11.1212 162.82 11.3523C162.547 11.5833 162.34 11.8977 162.2 12.2955C162.064 12.6932 161.996 13.1458 161.996 13.6534C161.996 14.161 162.064 14.6136 162.2 15.0114C162.34 15.4091 162.547 15.7235 162.82 15.9545C163.096 16.1818 163.437 16.2955 163.842 16.2955ZM175.297 14.2841V9.27273H177.717V18H175.393V16.4148H175.303C175.106 16.9261 174.778 17.3371 174.32 17.6477C173.865 17.9583 173.31 18.1136 172.655 18.1136C172.071 18.1136 171.558 17.9811 171.115 17.7159C170.672 17.4508 170.325 17.0739 170.075 16.5852C169.829 16.0966 169.704 15.5114 169.7 14.8295V9.27273H172.121V14.3977C172.125 14.9129 172.263 15.3201 172.536 15.6193C172.808 15.9186 173.174 16.0682 173.632 16.0682C173.924 16.0682 174.196 16.0019 174.45 15.8693C174.704 15.733 174.909 15.5322 175.064 15.267C175.223 15.0019 175.301 14.6742 175.297 14.2841ZM182.074 12.9545V18H179.653V9.27273H181.96V10.8125H182.062C182.256 10.3049 182.58 9.90341 183.034 9.60795C183.489 9.30871 184.04 9.15909 184.688 9.15909C185.294 9.15909 185.822 9.29167 186.273 9.55682C186.723 9.82197 187.074 10.2008 187.324 10.6932C187.574 11.1818 187.699 11.7652 187.699 12.4432V18H185.278V12.875C185.282 12.3409 185.146 11.9242 184.869 11.625C184.593 11.322 184.212 11.1705 183.727 11.1705C183.402 11.1705 183.114 11.2405 182.864 11.3807C182.617 11.5208 182.424 11.7254 182.284 11.9943C182.148 12.2595 182.078 12.5795 182.074 12.9545ZM194.249 9.27273V11.0909H188.993V9.27273H194.249ZM190.186 7.18182H192.607V15.3182C192.607 15.5417 192.641 15.7159 192.709 15.8409C192.777 15.9621 192.872 16.0473 192.993 16.0966C193.118 16.1458 193.262 16.1705 193.425 16.1705C193.538 16.1705 193.652 16.161 193.766 16.142C193.879 16.1193 193.966 16.1023 194.027 16.0909L194.408 17.892C194.286 17.9299 194.116 17.9735 193.896 18.0227C193.677 18.0758 193.41 18.108 193.095 18.1193C192.512 18.142 192 18.0644 191.561 17.8864C191.125 17.7083 190.786 17.4318 190.544 17.0568C190.302 16.6818 190.182 16.2083 190.186 15.6364V7.18182Z" fill="#F4F5F9"/>
</svg>
